<?xml version="1.0" standalone="no"?><!DOCTYPE svg PUBLIC "-//W3C//DTD SVG 1.1//EN"
  "http://www.w3.org/Graphics/SVG/1.1/DTD/svg11.dtd">
<svg t="1660463345541" class="icon" viewBox="0 0 1024 1024" version="1.1" xmlns="http://www.w3.org/2000/svg"
     p-id="13767"
     width="128" height="128">
  <defs>
    <style type="text/css">@font-face { font-family: feedback-iconfont; src:
      url("//at.alicdn.com/t/font_1031158_u69w8yhxdu.woff2?t=1630033759944") format("woff2"),
      url("//at.alicdn.com/t/font_1031158_u69w8yhxdu.woff?t=1630033759944") format("woff"),
      url("//at.alicdn.com/t/font_1031158_u69w8yhxdu.ttf?t=1630033759944") format("truetype"); }
    </style>
  </defs>
  <path
    d="M552.83712 821.8112a25.6 25.6 0 0 0 25.6 25.6h389.18144c14.14144 0 25.6-11.45856 25.6-25.6s-11.45856-25.6-25.6-25.6h-389.18144a25.6 25.6 0 0 0-25.6 25.6z m414.78144 113.13152H393.48224c-14.14144 0-25.6 11.45856-25.6 25.6s11.45856 25.6 25.6 25.6h574.13632c14.14144 0 25.6-11.45856 25.6-25.6s-11.45856-25.6-25.6-25.6zM412.64128 840.96c0.29696-0.3072 0.512-0.6656 0.79872-0.99328 0.64512-0.59392 1.37216-1.18784 1.95584-1.78176l410.66496-410.65472c0.01024 0 0.02048-0.01024 0.03072-0.02048l0.02048-0.03072 76.58496-76.58496c32.12288-32.12288 49.8176-74.83392 49.8176-120.25856s-17.70496-88.13568-49.8176-120.25856l-22.70208-22.70208c-32.12288-32.13312-74.84416-49.8176-120.25856-49.8176s-88.12544 17.69472-120.25856 49.8176l-487.30112 487.31136c-0.58368 0.57344-1.14688 1.30048-1.72032 1.91488-0.32768 0.29696-0.70656 0.52224-1.03424 0.83968a25.8048 25.8048 0 0 0-2.75456 3.35872l-0.27648 0.33792c-0.09216 0.14336-0.21504 0.26624-0.29696 0.4096-57.78432 71.69024-109.01504 329.3184-114.85184 359.424a25.60512 25.60512 0 0 0 31.21152 29.73696c28.98944-7.09632 278.528-69.39648 347.38176-127.77472 0.96256-0.7168 1.93536-1.40288 2.80576-2.27328z m-208.90624-245.11488l377.25184-377.25184 190.80192 190.8224-377.2416 377.2416-190.81216-190.81216z m471.94112-471.9616c22.45632-22.44608 52.30592-34.816 84.06016-34.816s61.60384 12.36992 84.04992 34.816l22.71232 22.71232c22.44608 22.44608 34.816 52.29568 34.816 84.04992s-12.36992 61.60384-34.816 84.04992l-58.5216 58.5216-190.80192-190.8224 58.50112-58.51136zM171.73504 636.25216l182.85568 182.86592c-55.66464 30.9248-174.42816 68.096-264.93952 92.09856 20.16256-94.13632 52.6848-217.86624 82.08384-274.96448z"
    fill="#272636" p-id="13768"></path>
</svg>
