<?xml version="1.0" standalone="no"?><!DOCTYPE svg PUBLIC "-//W3C//DTD SVG 1.1//EN"
        "http://www.w3.org/Graphics/SVG/1.1/DTD/svg11.dtd">
<svg t="1660463396438" class="icon" viewBox="0 0 1024 1024" version="1.1" xmlns="http://www.w3.org/2000/svg"
     p-id="14757"
     width="128" height="128">
    <defs>
        <style type="text/css">@font-face { font-family: feedback-iconfont; src:
            url("//at.alicdn.com/t/font_1031158_u69w8yhxdu.woff2?t=1630033759944") format("woff2"),
            url("//at.alicdn.com/t/font_1031158_u69w8yhxdu.woff?t=1630033759944") format("woff"),
            url("//at.alicdn.com/t/font_1031158_u69w8yhxdu.ttf?t=1630033759944") format("truetype"); }
        </style>
    </defs>
    <path d="M607.839811 895.957102H214.69447A86.82497 86.82497 0 0 1 127.880338 809.070721V214.784781A86.839419 86.839419 0 0 1 214.69447 127.880338h594.28594a86.33729 86.33729 0 0 1 61.436749 25.456857c16.400473 16.400473 25.362934 38.208767 25.373771 61.411462L894.439878 607.821749v0.10476a32.031496 32.031496 0 0 0 64.059379 0.101149L959.825022 214.889542v-0.104761A150.775976 150.775976 0 0 0 808.98041 63.940169H214.69447A150.638703 150.638703 0 0 0 63.940169 214.784781v594.28594a150.638703 150.638703 0 0 0 150.757914 150.82655h393.141728a31.970084 31.970084 0 0 0 0-63.940169z"
          fill="" p-id="14758"></path>
    <path d="M950.544667 905.331381l-122.071536-122.071536a192.217875 192.217875 0 1 0-45.213286 45.213286l122.071536 122.071536a31.970084 31.970084 0 0 0 45.213286-45.213286z m-278.547941-105.302594a128.028448 128.028448 0 1 1 90.531332-37.497116 127.193975 127.193975 0 0 1-90.527719 37.497116zM768.004516 352.212795c17.653989 0 31.966472-14.402794 31.970084-32.056783s-14.308871-32.074845-31.966472-32.078457L256.002709 287.911382a32.020659 32.020659 0 0 0-31.970084 32.024271c0 17.657601 14.308871 32.092907 31.966472 32.092908L768.004516 352.212795zM448.000226 544.033302a31.96286 31.96286 0 1 0 0-63.940169h-192.001129a31.937573 31.937573 0 1 0 0 63.878758l192.001129 0.061411zM256.017159 671.91364a31.959247 31.959247 0 1 0 0 63.922107l127.999549 0.018062a31.941185 31.941185 0 1 0 0-63.878757z"
          fill="" p-id="14759"></path>
</svg>
